<svg xmlns="http://www.w3.org/2000/svg" xmlns:xlink="http://www.w3.org/1999/xlink" width="47cm" height="19cm" viewBox="-15 9 931 361"><g><rect width="165" height="40" x="106.674" y="275.417" style="fill:#fff"/><rect width="165" height="40" x="106.674" y="275.417" style="fill:none;fill-opacity:0;stroke-width:4;stroke:#000"/><text x="189.174" y="299.317" font-size="12.8" style="fill:#000;text-anchor:middle;font-family:sans-serif;font-style:normal;font-weight:400"><tspan x="189.174" y="299.317">Payer</tspan></text></g><g><rect width="165" height="40" x="213.247" y="328.162" style="fill:#fff"/><rect width="165" height="40" x="213.247" y="328.162" style="fill:none;fill-opacity:0;stroke-width:4;stroke:#000"/><text x="295.747" y="352.062" font-size="12.8" style="fill:#000;text-anchor:middle;font-family:sans-serif;font-style:normal;font-weight:400"><tspan x="295.747" y="352.062">Payment Agent</tspan></text></g><g><rect width="86.4" height="195.1" x="647.6" y="15.9" style="fill:#fff"/><rect width="86.4" height="195.1" x="647.6" y="15.9" style="fill:none;fill-opacity:0;stroke-width:4;stroke:#000"/><text x="690.8" y="117.35" font-size="12.8" style="fill:#000;text-anchor:middle;font-family:sans-serif;font-style:normal;font-weight:400"><tspan x="690.8" y="117.35">Payee</tspan></text></g><g><line x1="647.6" x2="333.564" y1="64.675" y2="64.499" style="fill:none;fill-opacity:0;stroke-width:4;stroke:#000"/><polygon points="333.567 59.499 323.564 64.493 333.561 69.499" style="fill:#000"/><polygon points="333.567 59.499 323.564 64.493 333.561 69.499" style="fill:none;fill-opacity:0;stroke-width:4;stroke:#000"/></g><g><polyline points="734 15.9 774.98 15.693 774.98 64.483 746 64.619" style="fill:none;fill-opacity:0;stroke-width:4;stroke:#000"/><polygon points="745.976 59.619 736 64.666 746.023 69.619" style="fill:#000"/><polygon points="745.976 59.619 736 64.666 746.023 69.619" style="fill:none;fill-opacity:0;stroke-width:4;stroke:#000"/></g><text x="347.1" y="21.564" font-size="12.8" style="fill:#000;text-anchor:start;font-family:sans-serif;font-style:normal;font-weight:400"><tspan x="347.1" y="21.564">2. Payment Request, including </tspan> <tspan x="347.1" y="37.564"> payee-supported payment instruments</tspan> <tspan x="347.1" y="53.564"> sent to User Agent (e.g. browser)</tspan></text><text x="781.014" y="34.289" font-size="12.8" style="fill:#000;text-anchor:start;font-family:sans-serif;font-style:normal;font-weight:400"><tspan x="781.014" y="34.289">1. Payee generates a</tspan> <tspan x="781.014" y="50.289"> Payment Request</tspan></text><g><rect width="165" height="40" x="156.564" y="44.492" style="fill:#fff"/><rect width="165" height="40" x="156.564" y="44.492" style="fill:none;fill-opacity:0;stroke-width:4;stroke:#000"/><text x="239.064" y="68.392" font-size="12.8" style="fill:#000;text-anchor:middle;font-family:sans-serif;font-style:normal;font-weight:400"><tspan x="239.064" y="68.392">User Agent</tspan></text></g><g><line x1="239.042" x2="238.733" y1="96.492" y2="259.665" style="fill:none;fill-opacity:0;stroke-width:4;stroke:#000"/><polygon points="244.042 96.501 239.06 86.492 234.042 96.482" style="fill:#000"/><polygon points="244.042 96.501 239.06 86.492 234.042 96.482" style="fill:none;fill-opacity:0;stroke-width:4;stroke:#000"/><polygon points="233.733 259.656 238.714 269.665 243.733 259.675" style="fill:#000"/><polygon points="233.733 259.656 238.714 269.665 243.733 259.675" style="fill:none;fill-opacity:0;stroke-width:4;stroke:#000"/></g><text x="-5.242" y="210.663" font-size="12.8" style="fill:#000;text-anchor:start;font-family:sans-serif;font-style:normal;font-weight:400"><tspan x="-5.242" y="210.663">4. Payer selects their preferred</tspan> <tspan x="-5.242" y="226.663"> payment instrument from an</tspan> <tspan x="-5.242" y="242.663"> intersection of payee-supported</tspan> <tspan x="-5.242" y="258.663"> instruments and payer-supported</tspan> <tspan x="-5.242" y="274.663"> instruments</tspan></text><g><line x1="295.986" x2="295.986" y1="84.989" y2="312.698" style="fill:none;fill-opacity:0;stroke-width:4;stroke:#000"/><polygon points="290.986 312.698 295.986 322.698 300.986 312.698" style="fill:#000"/><polygon points="290.986 312.698 295.986 322.698 300.986 312.698" style="fill:none;fill-opacity:0;stroke-width:4;stroke:#000"/></g><text x="305.602" y="185.914" font-size="12.8" style="fill:#000;text-anchor:start;font-family:sans-serif;font-style:normal;font-weight:400"><tspan x="305.602" y="185.914">5. Payment Request is routed</tspan> <tspan x="305.602" y="201.914"> to the appropriate Payment Agent</tspan> <tspan x="305.602" y="217.914"> based on Payer&apos;s selection</tspan></text><g><rect width="165" height="40" x="33.952" y="138.537" style="fill:#fff"/><rect width="165" height="40" x="33.952" y="138.537" style="fill:none;fill-opacity:0;stroke-width:4;stroke:#000"/><text x="116.452" y="162.437" font-size="12.8" style="fill:#000;text-anchor:middle;font-family:sans-serif;font-style:normal;font-weight:400"><tspan x="116.452" y="162.437">Payment Agent</tspan></text></g><g><rect width="165" height="40" x="39.75" y="144.053" style="fill:#fff"/><rect width="165" height="40" x="39.75" y="144.053" style="fill:none;fill-opacity:0;stroke-width:4;stroke:#000"/><text x="122.25" y="167.953" font-size="12.8" style="fill:#000;text-anchor:middle;font-family:sans-serif;font-style:normal;font-weight:400"><tspan x="122.25" y="167.953">Payment Agent</tspan></text></g><g><rect width="165" height="40" x="47.246" y="151.053" style="fill:#fff"/><rect width="165" height="40" x="47.246" y="151.053" style="fill:none;fill-opacity:0;stroke-width:4;stroke:#000"/><text x="129.746" y="174.953" font-size="12.8" style="fill:#000;text-anchor:middle;font-family:sans-serif;font-style:normal;font-weight:400"><tspan x="129.746" y="174.953">Payment Agent</tspan></text></g><g><line x1="191.516" x2="191.859" y1="100.523" y2="123.195" style="fill:none;fill-opacity:0;stroke-width:4;stroke:#000"/><polygon points="196.515 100.447 191.364 90.524 186.516 100.599" style="fill:#000"/><polygon points="196.515 100.447 191.364 90.524 186.516 100.599" style="fill:none;fill-opacity:0;stroke-width:4;stroke:#000"/><polygon points="186.86 123.271 192.011 133.194 196.859 123.119" style="fill:#000"/><polygon points="186.86 123.271 192.011 133.194 196.859 123.119" style="fill:none;fill-opacity:0;stroke-width:4;stroke:#000"/></g><text x="-14.01" y="108.132" font-size="12.8" style="fill:#000;text-anchor:start;font-family:sans-serif;font-style:normal;font-weight:400"><tspan x="-14.01" y="108.132">3. Payer-supported payment</tspan> <tspan x="-14.01" y="124.132"> instruments are discovered</tspan></text></svg>