<svg xmlns="http://www.w3.org/2000/svg" xmlns:xlink="http://www.w3.org/1999/xlink" width="30cm" height="20cm" viewBox="79 19 582 382"><g><path d="M 260,71 A 6,6 0 0 0 254,65" style="fill:none;fill-opacity:0;stroke-width:2;stroke-linejoin:round;stroke:#000"/><line x1="180" x2="254" y1="65" y2="65" style="fill:none;fill-opacity:0;stroke-width:2;stroke-linejoin:round;stroke:#000"/><path d="M 260,119 A 6,6 0 0 0 266,125" style="fill:none;fill-opacity:0;stroke-width:2;stroke-linejoin:round;stroke:#000"/><line x1="260" x2="260" y1="71" y2="119" style="fill:none;fill-opacity:0;stroke-width:2;stroke-linejoin:round;stroke:#000"/><line x1="266" x2="469" y1="125" y2="125" style="fill:none;fill-opacity:0;stroke-width:2;stroke-linejoin:round;stroke:#000"/><polygon points="469 130 479 125 469 120" style="fill:#000"/><polygon points="469 130 479 125 469 120" style="fill:none;fill-opacity:0;stroke-width:2;stroke:#000"/></g><g><rect width="100" height="180" x="80" y="20" style="fill:#fff"/><rect width="100" height="180" x="80" y="20" style="fill:none;fill-opacity:0;stroke-width:2;stroke:#000"/><text x="130" y="114.8" font-size="12.8" style="fill:#000;text-anchor:middle;font-family:sans-serif;font-style:normal;font-weight:400"><tspan x="130" y="114.8">Payee</tspan></text></g><g><rect width="180" height="40" x="480" y="20" style="fill:#fff"/><rect width="180" height="40" x="480" y="20" style="fill:none;fill-opacity:0;stroke-width:2;stroke:#000"/><text x="570" y="44.8" font-size="12.8" style="fill:#000;text-anchor:middle;font-family:sans-serif;font-style:normal;font-weight:400"><tspan x="570" y="44.8">Payer</tspan></text></g><g><rect width="180" height="100" x="480" y="100" style="fill:#fff"/><rect width="180" height="100" x="480" y="100" style="fill:none;fill-opacity:0;stroke-width:2;stroke:#000"/><text x="570" y="154.8" font-size="12.8" style="fill:#000;text-anchor:middle;font-family:sans-serif;font-style:normal;font-weight:400"><tspan x="570" y="154.8">Payment Agent</tspan></text></g><line x1="400" x2="460" y1="40" y2="40" style="fill:none;fill-opacity:0;stroke-width:2;stroke-dasharray:4;stroke:#000"/><line x1="570" x2="570" y1="60" y2="100" style="fill:none;fill-opacity:0;stroke-width:2;stroke-dasharray:4;stroke:#000"/><g><path d="M 260,169 A 6,6 0 0 0 266,175" style="fill:none;fill-opacity:0;stroke-width:2;stroke-linejoin:round;stroke:#000"/><line x1="480" x2="266" y1="175" y2="175" style="fill:none;fill-opacity:0;stroke-width:2;stroke-linejoin:round;stroke:#000"/><path d="M 260,159.95 A 4.94975,4.94975 0 0 0 255.05,155" style="fill:none;fill-opacity:0;stroke-width:2;stroke-linejoin:round;stroke:#000"/><line x1="260" x2="260" y1="169" y2="159.95" style="fill:none;fill-opacity:0;stroke-width:2;stroke-linejoin:round;stroke:#000"/><line x1="255.05" x2="191" y1="155" y2="155" style="fill:none;fill-opacity:0;stroke-width:2;stroke-linejoin:round;stroke:#000"/><polygon points="191 150 181 155 191 160" style="fill:#000"/><polygon points="191 150 181 155 191 160" style="fill:none;fill-opacity:0;stroke-width:2;stroke:#000"/></g><g><rect width="100" height="120" x="80" y="280" style="fill:#fff"/><rect width="100" height="120" x="80" y="280" style="fill:none;fill-opacity:0;stroke-width:2;stroke:#000"/><text x="130" y="344.8" font-size="12.8" style="fill:#000;text-anchor:middle;font-family:sans-serif;font-style:normal;font-weight:400"><tspan x="130" y="344.8">Processor</tspan></text></g><g><rect width="84.45" height="180" x="300" y="20" style="fill:#fff"/><rect width="84.45" height="180" x="300" y="20" style="fill:none;fill-opacity:0;stroke-width:2;stroke:#000"/><text x="342.225" y="114.8" font-size="12.8" style="fill:#000;text-anchor:middle;font-family:sans-serif;font-style:normal;font-weight:400"><tspan x="342.225" y="114.8">User Agent</tspan></text></g><g><path d="M 480 200 C 380,240 280,240 190.213,204.085" style="fill:none;fill-opacity:0;stroke-width:2;stroke-dasharray:20;stroke:#000"/><polygon points="192.07 199.443 180.928 200.371 188.356 208.728" style="fill:#000"/><polygon points="192.07 199.443 180.928 200.371 188.356 208.728" style="fill:none;fill-opacity:0;stroke-width:2;stroke:#000"/></g><g><line x1="105" x2="105" y1="200" y2="269" style="fill:none;fill-opacity:0;stroke-width:2;stroke:#000"/><polygon points="100 269 105 279 110 269" style="fill:#000"/><polygon points="100 269 105 279 110 269" style="fill:none;fill-opacity:0;stroke-width:2;stroke:#000"/></g><g><line x1="155" x2="155" y1="280" y2="211" style="fill:none;fill-opacity:0;stroke-width:2;stroke:#000"/><polygon points="160 211 155 201 150 211" style="fill:#000"/><polygon points="160 211 155 201 150 211" style="fill:none;fill-opacity:0;stroke-width:2;stroke:#000"/></g><text x="228" y="57" font-size="13.027" style="fill:#000;text-anchor:start;font-family:sans-serif;font-style:normal;font-weight:400"><tspan x="228" y="57">1</tspan></text><text x="227" y="173" font-size="13.027" style="fill:#000;text-anchor:start;font-family:sans-serif;font-style:normal;font-weight:400"><tspan x="227" y="173">2</tspan></text><text x="89" y="244" font-size="13.027" style="fill:#000;text-anchor:start;font-family:sans-serif;font-style:normal;font-weight:400"><tspan x="89" y="244">3</tspan></text><text x="164" y="243.5" font-size="13.027" style="fill:#000;text-anchor:start;font-family:sans-serif;font-style:normal;font-weight:400"><tspan x="164" y="243.5">4</tspan></text><text x="324" y="252.15" font-size="13.027" style="fill:#000;text-anchor:start;font-family:sans-serif;font-style:normal;font-weight:400"><tspan x="324" y="252.15">2&apos;</tspan></text></svg>