<svg xmlns="http://www.w3.org/2000/svg" xmlns:xlink="http://www.w3.org/1999/xlink" width="42cm" height="10cm" viewBox="45 35 832 200"><g><rect width="165" height="42.686" x="49" y="65.314" style="fill:#fff"/><rect width="165" height="42.686" x="49" y="65.314" style="fill:none;fill-opacity:0;stroke-width:4;stroke:#000"/><text x="131.5" y="90.557" font-size="12.8" style="fill:#000;text-anchor:middle;font-family:sans-serif;font-style:normal;font-weight:400"><tspan x="131.5" y="90.557">Payer</tspan></text></g><g><rect width="165" height="40" x="47.8" y="188.9" style="fill:#fff"/><rect width="165" height="40" x="47.8" y="188.9" style="fill:none;fill-opacity:0;stroke-width:4;stroke:#000"/><text x="130.3" y="212.8" font-size="12.8" style="fill:#000;text-anchor:middle;font-family:sans-serif;font-style:normal;font-weight:400"><tspan x="130.3" y="212.8">Payment Agent</tspan></text></g><text x="216.592" y="134.771" font-size="12.8" style="fill:#bbf;text-anchor:middle;font-family:sans-serif;font-style:normal;font-weight:700"><tspan x="216.592" y="134.771">Payer controls their </tspan> <tspan x="216.592" y="150.771">User Agent and their</tspan> <tspan x="216.592" y="166.771">Payment Agents</tspan></text><text x="415.536" y="49.328" font-size="12.8" style="fill:#000;text-anchor:start;font-family:sans-serif;font-style:normal;font-weight:400"><tspan x="415.536" y="49.328">1. Payer selects product or</tspan> <tspan x="415.536" y="65.328"> service to purchase</tspan></text><text x="401.1" y="152.5" font-size="12.8" style="fill:#000;text-anchor:start;font-family:sans-serif;font-style:normal;font-weight:400"><tspan x="401.1" y="152.5">3. Payment Request is sent to</tspan> <tspan x="401.1" y="168.5"> Payment Agent via User Agent</tspan></text><text x="748.6" y="132" font-size="12.8" style="fill:#000;text-anchor:start;font-family:sans-serif;font-style:normal;font-weight:400"><tspan x="748.6" y="132">2. Payee generates</tspan> <tspan x="748.6" y="148"> Payment Request</tspan></text><g><rect width="86.4" height="195.1" x="621.6" y="37.9" style="fill:#fff"/><rect width="86.4" height="195.1" x="621.6" y="37.9" style="fill:none;fill-opacity:0;stroke-width:4;stroke:#000"/><text x="664.8" y="139.35" font-size="12.8" style="fill:#000;text-anchor:middle;font-family:sans-serif;font-style:normal;font-weight:400"><tspan x="664.8" y="139.35">Payee</tspan></text></g><g><path d="M 741,96.675 A 10,10 0 0 0 731,86.675" style="fill:none;fill-opacity:0;stroke-width:4;stroke-linejoin:round;stroke:#000"/><line x1="708" x2="731" y1="86.675" y2="86.675" style="fill:none;fill-opacity:0;stroke-width:4;stroke-linejoin:round;stroke:#000"/><path d="M 733.575,184.225 A 7.42462,7.42462 0 0 0 741,176.8" style="fill:none;fill-opacity:0;stroke-width:4;stroke-linejoin:round;stroke:#000"/><line x1="741" x2="741" y1="96.675" y2="176.8" style="fill:none;fill-opacity:0;stroke-width:4;stroke-linejoin:round;stroke:#000"/><line x1="733.575" x2="720" y1="184.225" y2="184.225" style="fill:none;fill-opacity:0;stroke-width:4;stroke-linejoin:round;stroke:#000"/><polygon points="720 179.225 710 184.225 720 189.225" style="fill:#000"/><polygon points="720 179.225 710 184.225 720 189.225" style="fill:none;fill-opacity:0;stroke-width:4;stroke:#000"/></g><g><polyline points="391.35 86.675 393.35 86.675 619.6 86.675 609.6 86.675" style="fill:none;fill-opacity:0;stroke-width:4;stroke:#000"/><polygon points="609.6 91.675 619.6 86.675 609.6 81.675" style="fill:#000"/><polygon points="609.6 91.675 619.6 86.675 609.6 81.675" style="fill:none;fill-opacity:0;stroke-width:4;stroke:#000"/></g><g><path d="M 506.724,184.225 A 8.72393,8.72393 0 0 0 498,192.949" style="fill:none;fill-opacity:0;stroke-width:4;stroke-linejoin:round;stroke:#000"/><line x1="621.6" x2="506.724" y1="184.225" y2="184.225" style="fill:none;fill-opacity:0;stroke-width:4;stroke-linejoin:round;stroke:#000"/><path d="M 492.36,208.9 A 5.63955,5.63955 0 0 0 498,203.26" style="fill:none;fill-opacity:0;stroke-width:4;stroke-linejoin:round;stroke:#000"/><line x1="498" x2="498" y1="192.949" y2="203.26" style="fill:none;fill-opacity:0;stroke-width:4;stroke-linejoin:round;stroke:#000"/><line x1="492.36" x2="224.8" y1="208.9" y2="208.9" style="fill:none;fill-opacity:0;stroke-width:4;stroke-linejoin:round;stroke:#000"/><polygon points="224.8 203.9 214.8 208.9 224.8 213.9" style="fill:#000"/><polygon points="224.8 203.9 214.8 208.9 224.8 213.9" style="fill:none;fill-opacity:0;stroke-width:4;stroke:#000"/></g><g><rect width="95.1" height="195.1" x="296.25" y="37.9" style="fill:#fff"/><rect width="95.1" height="195.1" x="296.25" y="37.9" style="fill:none;fill-opacity:0;stroke-width:4;stroke:#000"/><text x="343.8" y="139.35" font-size="12.8" style="fill:#000;text-anchor:middle;font-family:sans-serif;font-style:normal;font-weight:400"><tspan x="343.8" y="139.35">User Agent</tspan></text></g><line x1="131.5" x2="130.3" y1="108" y2="188.9" style="fill:none;fill-opacity:0;stroke-width:4;stroke-dasharray:4;stroke:#000"/><line x1="214" x2="296.25" y1="86.657" y2="86.675" style="fill:none;fill-opacity:0;stroke-width:4;stroke-dasharray:4;stroke:#000"/></svg>