<svg xmlns="http://www.w3.org/2000/svg" xmlns:xlink="http://www.w3.org/1999/xlink" width="34cm" height="13cm" viewBox="18 44 661 254"><g><path d="M 105.327,196.144 A 10,10 0 0 0 115.327,206.144" style="fill:none;fill-opacity:0;stroke-width:3.52778;stroke-linejoin:round;stroke:#ff8585"/><line x1="105.327" x2="105.327" y1="170.463" y2="196.144" style="fill:none;fill-opacity:0;stroke-width:3.52778;stroke-linejoin:round;stroke:#ff8585"/><path d="M 356.074,215.653 A 9.50848,9.50848 0 0 0 346.565,206.144" style="fill:none;fill-opacity:0;stroke-width:3.52778;stroke-linejoin:round;stroke:#ff8585"/><line x1="115.327" x2="346.565" y1="206.144" y2="206.144" style="fill:none;fill-opacity:0;stroke-width:3.52778;stroke-linejoin:round;stroke:#ff8585"/><line x1="356.074" x2="356.074" y1="215.653" y2="233.038" style="fill:none;fill-opacity:0;stroke-width:3.52778;stroke-linejoin:round;stroke:#ff8585"/><polygon points="351.074 233.038 356.074 243.038 361.074 233.038" style="fill:#ff8585"/><polygon points="351.074 233.038 356.074 243.038 361.074 233.038" style="fill:none;fill-opacity:0;stroke-width:3.52778;stroke:#ff8585"/></g><g><path d="M 590.102,206.163 A 9.79342,9.79342 0 0 0 599.895,196.37" style="fill:none;fill-opacity:0;stroke-width:3.52778;stroke-linejoin:round;stroke:#ff8585"/><line x1="599.895" x2="599.895" y1="178.463" y2="196.37" style="fill:none;fill-opacity:0;stroke-width:3.52778;stroke-linejoin:round;stroke:#ff8585"/><path d="M 365.576,206.163 A 9.50169,9.50169 0 0 0 356.074,215.665" style="fill:none;fill-opacity:0;stroke-width:3.52778;stroke-linejoin:round;stroke:#ff8585"/><line x1="590.102" x2="365.576" y1="206.163" y2="206.163" style="fill:none;fill-opacity:0;stroke-width:3.52778;stroke-linejoin:round;stroke:#ff8585"/><line x1="356.074" x2="356.074" y1="215.665" y2="233.038" style="fill:none;fill-opacity:0;stroke-width:3.52778;stroke-linejoin:round;stroke:#ff8585"/><polygon points="351.074 233.038 356.074 243.038 361.074 233.038" style="fill:#ff8585"/><polygon points="351.074 233.038 356.074 243.038 361.074 233.038" style="fill:none;fill-opacity:0;stroke-width:3.52778;stroke:#ff8585"/></g><g><path d="M 355.961,207.593 A 0.0398484,0.0398484 0 0 0 356.001,207.633" style="fill:none;fill-opacity:0;stroke-width:3.52778;stroke-linejoin:round;stroke:#ff8585"/><line x1="355.961" x2="355.961" y1="170.463" y2="207.593" style="fill:none;fill-opacity:0;stroke-width:3.52778;stroke-linejoin:round;stroke:#ff8585"/><path d="M 356.074,207.658 A 0.0257599,0.0257599 0 0 0 356.048,207.633" style="fill:none;fill-opacity:0;stroke-width:3.52778;stroke-linejoin:round;stroke:#ff8585"/><line x1="356.001" x2="356.048" y1="207.633" y2="207.633" style="fill:none;fill-opacity:0;stroke-width:3.52778;stroke-linejoin:round;stroke:#ff8585"/><line x1="356.074" x2="356.074" y1="207.658" y2="233.038" style="fill:none;fill-opacity:0;stroke-width:3.52778;stroke-linejoin:round;stroke:#ff8585"/><polygon points="351.074 233.038 356.074 243.038 361.074 233.038" style="fill:#ff8585"/><polygon points="351.074 233.038 356.074 243.038 361.074 233.038" style="fill:none;fill-opacity:0;stroke-width:3.52778;stroke:#ff8585"/></g><g><line x1="190.852" x2="283.247" y1="144.463" y2="144.463" style="fill:none;fill-opacity:0;stroke-width:3.52778;stroke:#000"/><polygon points="283.247 149.463 293.247 144.463 283.247 139.463" style="fill:#000"/><polygon points="283.247 149.463 293.247 144.463 283.247 139.463" style="fill:none;fill-opacity:0;stroke-width:3.52778;stroke:#000"/></g><g><line x1="416.911" x2="509.306" y1="144.463" y2="144.463" style="fill:none;fill-opacity:0;stroke-width:3.52778;stroke:#000"/><polygon points="509.306 149.463 519.306 144.463 509.306 139.463" style="fill:#000"/><polygon points="509.306 149.463 519.306 144.463 509.306 139.463" style="fill:none;fill-opacity:0;stroke-width:3.52778;stroke:#000"/></g><g><rect width="121.9" height="52" x="295.011" y="118.463" rx="10" ry="10" style="fill:#fff"/><rect width="121.9" height="52" x="295.011" y="118.463" rx="10" ry="10" style="fill:none;fill-opacity:0;stroke-width:2;stroke:#000"/><text x="355.961" y="140.363" font-size="12.8" style="fill:#000;text-anchor:middle;font-family:sans-serif;font-style:normal;font-weight:400"><tspan x="355.961" y="140.363">Phase 2</tspan> <tspan x="355.961" y="156.363">Payee gets paid</tspan></text></g><g><rect width="157.65" height="68" x="521.07" y="110.463" rx="10" ry="10" style="fill:#fff"/><rect width="157.65" height="68" x="521.07" y="110.463" rx="10" ry="10" style="fill:none;fill-opacity:0;stroke-width:2;stroke:#000"/><text x="599.895" y="132.363" font-size="12.8" style="fill:#000;text-anchor:middle;font-family:sans-serif;font-style:normal;font-weight:400"><tspan x="599.895" y="132.363">Phase 3</tspan> <tspan x="599.895" y="148.363">Payer receives </tspan> <tspan x="599.895" y="164.363">receipt/goods/service</tspan></text></g><g><rect width="171.05" height="52" x="19.802" y="118.463" rx="10" ry="10" style="fill:#fff"/><rect width="171.05" height="52" x="19.802" y="118.463" rx="10" ry="10" style="fill:none;fill-opacity:0;stroke-width:2;stroke:#000"/><text x="105.327" y="140.363" font-size="12.8" style="fill:#000;text-anchor:middle;font-family:sans-serif;font-style:normal;font-weight:400"><tspan x="105.327" y="140.363">Phase 1</tspan> <tspan x="105.327" y="156.363">Payer initiates Payment</tspan></text></g><g><rect width="278" height="52" x="217.074" y="244.802" rx="10" ry="10" style="fill:#fff"/><rect width="278" height="52" x="217.074" y="244.802" rx="10" ry="10" style="fill:none;fill-opacity:0;stroke-width:2;stroke:#000"/><text x="356.074" y="266.702" font-size="12.8" style="fill:#000;text-anchor:middle;font-family:sans-serif;font-style:normal;font-weight:400"><tspan x="356.074" y="266.702">Exceptions</tspan> <tspan x="356.074" y="282.702">Insufficient funds, Regulatory block, etc.</tspan></text></g></svg>